<svg width="2893" height="58" viewBox="0 0 2893 58" fill="none" xmlns="http://www.w3.org/2000/svg">
<g clip-path="url(#clip0)">
<path d="M326.697 42.2773H322V16.37H326.697V42.2773Z" fill="black"/>
<path d="M417.279 40.2719C417.279 40.6091 417.212 40.9223 417.08 41.2113C416.959 41.5004 416.791 41.7533 416.574 41.9701C416.369 42.1749 416.122 42.3375 415.833 42.4579C415.544 42.5784 415.237 42.6386 414.912 42.6386C414.623 42.6386 414.328 42.5844 414.027 42.476C413.738 42.3676 413.479 42.1929 413.25 41.9521L396.087 24.0302V42.2773H391.389V18.3754C391.389 17.8936 391.522 17.46 391.787 17.0746C392.064 16.6772 392.413 16.3821 392.835 16.1894C393.28 16.0087 393.738 15.9665 394.208 16.0629C394.678 16.1472 395.081 16.364 395.418 16.7133L412.581 34.6171V16.37H417.279V40.2719Z" fill="black"/>
<path d="M505.367 21.0673H495.015V42.2773H490.317V21.0673L479.947 21.0673V16.37L505.367 16.37V21.0673Z" fill="black"/>
<path d="M589.336 31.6903H574.503V26.9569H589.336V31.6903ZM591.45 42.2773H574.503C573.853 42.2773 573.142 42.1628 572.371 41.934C571.601 41.7052 570.884 41.3318 570.222 40.8139C569.571 40.2839 569.023 39.6034 568.578 38.7724C568.144 37.9293 567.927 36.8995 567.927 35.683V18.7367C567.927 18.4115 567.987 18.1044 568.108 17.8153C568.228 17.5263 568.391 17.2733 568.596 17.0566C568.812 16.8398 569.065 16.6711 569.354 16.5507C569.643 16.4302 569.957 16.37 570.294 16.37L591.45 16.37V21.0673L572.624 21.0673V35.683C572.624 36.2973 572.787 36.767 573.112 37.0922C573.437 37.4174 573.913 37.58 574.539 37.58H591.45V42.2773Z" fill="black"/>
<path d="M681.091 25.078C681.091 26.15 680.959 27.1075 680.694 27.9506C680.429 28.7937 680.068 29.5404 679.61 30.1908C679.164 30.8292 678.647 31.3772 678.056 31.8349C677.466 32.2926 676.846 32.6719 676.195 32.9731C675.557 33.2621 674.907 33.4729 674.244 33.6054C673.594 33.7379 672.98 33.8041 672.402 33.8041L682.212 42.2773H674.949L665.157 33.8041H661.779V29.1068H672.402C672.992 29.0587 673.528 28.9382 674.009 28.7455C674.503 28.5408 674.925 28.2698 675.274 27.9325C675.635 27.5953 675.912 27.1918 676.105 26.7221C676.298 26.2403 676.394 25.6923 676.394 25.078V22.1151C676.394 21.8502 676.358 21.6514 676.286 21.519C676.226 21.3744 676.141 21.272 676.033 21.2118C675.937 21.1396 675.828 21.0974 675.708 21.0854C675.599 21.0733 675.497 21.0673 675.401 21.0673L659.9 21.0673V42.2773H655.202V18.7367C655.202 18.4115 655.263 18.1044 655.383 17.8153C655.503 17.5263 655.666 17.2733 655.871 17.0566C656.088 16.8398 656.341 16.6711 656.63 16.5507C656.919 16.4302 657.232 16.37 657.569 16.37L675.401 16.37C676.448 16.37 677.334 16.5627 678.056 16.9482C678.779 17.3215 679.363 17.7973 679.809 18.3754C680.266 18.9415 680.592 19.5557 680.784 20.2182C680.989 20.8806 681.091 21.5009 681.091 22.079V25.078Z" fill="black"/>
<path d="M770.426 42.2773H765.729V35.9179H749.216V42.2773H744.519V29.3236C744.519 27.4327 744.844 25.6923 745.495 24.1024C746.145 22.5126 747.048 21.1456 748.205 20.0014C749.361 18.8572 750.728 17.9659 752.306 17.3275C753.883 16.6892 755.606 16.37 757.473 16.37H768.06C768.385 16.37 768.692 16.4302 768.981 16.5507C769.27 16.6711 769.523 16.8398 769.74 17.0566C769.957 17.2733 770.125 17.5263 770.246 17.8153C770.366 18.1044 770.426 18.4115 770.426 18.7367V42.2773ZM749.216 31.2206H765.729V21.0673H757.473C757.328 21.0673 757.021 21.0914 756.551 21.1396C756.094 21.1757 755.558 21.2781 754.943 21.4467C754.341 21.6153 753.703 21.8743 753.028 22.2235C752.354 22.5728 751.734 23.0546 751.167 23.6689C750.601 24.2831 750.132 25.0539 749.758 25.9814C749.397 26.8967 749.216 28.0108 749.216 29.3236V31.2206Z" fill="black"/>
<path d="M858.298 42.2773H841.351C840.918 42.2773 840.448 42.2291 839.942 42.1327C839.448 42.0243 838.955 41.8617 838.461 41.6449C837.979 41.4281 837.515 41.1511 837.07 40.8139C836.624 40.4646 836.227 40.0491 835.877 39.5673C835.54 39.0735 835.269 38.5074 835.064 37.8691C834.86 37.2187 834.757 36.49 834.757 35.683V22.9643C834.757 22.5307 834.805 22.067 834.902 21.5732C835.01 21.0673 835.173 20.5735 835.389 20.0917C835.606 19.5979 835.889 19.1282 836.239 18.6825C836.588 18.2369 837.003 17.8454 837.485 17.5082C837.979 17.1589 838.545 16.8819 839.183 16.6772C839.822 16.4724 840.544 16.37 841.351 16.37H858.298V21.0673H841.351C840.737 21.0673 840.267 21.2299 839.942 21.5551C839.617 21.8803 839.454 22.3621 839.454 23.0004V35.683C839.454 36.2852 839.617 36.755 839.942 37.0922C840.279 37.4174 840.749 37.58 841.351 37.58H858.298V42.2773Z" fill="black"/>
<path d="M945.356 21.0673H935.004V42.2773H930.307V21.0673L919.937 21.0673V16.37L945.356 16.37V21.0673Z" fill="black"/>
<path d="M1012.76 42.2773H1008.06V16.37H1012.76V42.2773Z" fill="black"/>
<path d="M1103.38 16.37L1091.11 41.3559C1090.92 41.7413 1090.63 42.0484 1090.24 42.2773C1089.87 42.5181 1089.45 42.6386 1088.99 42.6386C1088.55 42.6386 1088.13 42.5181 1087.75 42.2773C1087.37 42.0484 1087.09 41.7413 1086.88 41.3559L1074.63 16.37H1079.89L1088.99 35.0326L1098.14 16.37H1103.38Z" fill="black"/>
<path d="M1186.53 31.6903L1171.7 31.6903V26.9569L1186.53 26.9569V31.6903ZM1188.65 42.2773L1171.7 42.2773C1171.05 42.2773 1170.34 42.1628 1169.57 41.934C1168.8 41.7052 1168.08 41.3318 1167.42 40.8139C1166.77 40.2839 1166.22 39.6034 1165.77 38.7724C1165.34 37.9293 1165.12 36.8995 1165.12 35.683V18.7367C1165.12 18.4115 1165.18 18.1044 1165.3 17.8153C1165.42 17.5263 1165.59 17.2733 1165.79 17.0566C1166.01 16.8398 1166.26 16.6711 1166.55 16.5507C1166.84 16.4302 1167.15 16.37 1167.49 16.37L1188.65 16.37V21.0673L1169.82 21.0673V35.683C1169.82 36.2973 1169.98 36.767 1170.31 37.0922C1170.63 37.4174 1171.11 37.58 1171.74 37.58L1188.65 37.58V42.2773Z" fill="black"/>
<path d="M1353.78 42.2773L1349.05 42.2773V26.8485L1340.72 41.5004C1340.52 41.8738 1340.23 42.1568 1339.85 42.3495C1339.49 42.5422 1339.1 42.6386 1338.68 42.6386C1338.27 42.6386 1337.88 42.5422 1337.52 42.3495C1337.17 42.1568 1336.9 41.8738 1336.69 41.5004L1328.33 26.8485V42.2773L1323.63 42.2773V18.3754C1323.63 17.8334 1323.79 17.3516 1324.1 16.9301C1324.43 16.5085 1324.85 16.2255 1325.36 16.081C1325.62 16.0207 1325.87 16.0027 1326.12 16.0268C1326.38 16.0388 1326.62 16.093 1326.85 16.1894C1327.09 16.2737 1327.3 16.4001 1327.5 16.5688C1327.69 16.7253 1327.85 16.918 1327.98 17.1469L1338.68 35.7372L1349.38 17.1469C1349.65 16.6892 1350.03 16.364 1350.51 16.1713C1351.01 15.9786 1351.52 15.9485 1352.05 16.081C1352.55 16.2255 1352.97 16.5085 1353.3 16.9301C1353.62 17.3516 1353.78 17.8334 1353.78 18.3754V42.2773Z" fill="black"/>
<path d="M1443.84 39.9106C1443.84 40.2478 1443.78 40.5609 1443.66 40.85C1443.54 41.1391 1443.37 41.392 1443.15 41.6088C1442.94 41.8135 1442.68 41.9761 1442.4 42.0966C1442.11 42.217 1441.8 42.2773 1441.47 42.2773L1430.89 42.2773C1429.89 42.2773 1428.88 42.1689 1427.85 41.9521C1426.83 41.7353 1425.83 41.404 1424.87 40.9584C1423.92 40.5007 1423.02 39.9226 1422.18 39.224C1421.34 38.5255 1420.6 37.7004 1419.96 36.7489C1419.33 35.7854 1418.84 34.6894 1418.48 33.4608C1418.11 32.2203 1417.93 30.8412 1417.93 29.3236V16.37H1422.63V29.3236C1422.63 30.6485 1422.81 31.7686 1423.17 32.684C1423.55 33.5994 1424.02 34.3642 1424.58 34.9784C1425.15 35.5927 1425.77 36.0745 1426.44 36.4237C1427.12 36.773 1427.76 37.032 1428.36 37.2006C1428.97 37.3692 1429.51 37.4776 1429.97 37.5258C1430.44 37.5619 1430.74 37.58 1430.89 37.58L1439.14 37.58V16.37H1443.84V39.9106Z" fill="black"/>
<path d="M1532.31 42.2773L1510.88 42.2773C1510.54 42.2773 1510.23 42.217 1509.94 42.0966C1509.65 41.9761 1509.4 41.8135 1509.18 41.6088C1508.98 41.392 1508.82 41.1391 1508.7 40.85C1508.58 40.5609 1508.51 40.2478 1508.51 39.9106V16.37H1513.21V37.58L1532.31 37.58V42.2773Z" fill="black"/>
<path d="M1614.69 21.0673H1604.34V42.2773H1599.64V21.0673L1589.27 21.0673V16.37L1614.69 16.37V21.0673Z" fill="black"/>
<path d="M1682.09 42.2773L1677.39 42.2773V16.37L1682.09 16.37V42.2773Z" fill="black"/>
<path d="M1776.93 42.2773H1772.2V26.8485L1763.87 41.5004C1763.67 41.8738 1763.38 42.1568 1763.01 42.3495C1762.64 42.5422 1762.25 42.6386 1761.83 42.6386C1761.42 42.6386 1761.04 42.5422 1760.67 42.3495C1760.33 42.1568 1760.05 41.8738 1759.84 41.5004L1751.48 26.8485V42.2773H1746.78V18.3754C1746.78 17.8334 1746.94 17.3516 1747.25 16.9301C1747.58 16.5085 1748 16.2255 1748.52 16.081C1748.77 16.0207 1749.02 16.0027 1749.28 16.0268C1749.53 16.0388 1749.77 16.093 1750 16.1894C1750.24 16.2737 1750.46 16.4001 1750.65 16.5688C1750.84 16.7253 1751 16.918 1751.14 17.1469L1761.83 35.7372L1772.53 17.1469C1772.8 16.6892 1773.18 16.364 1773.66 16.1713C1774.16 15.9786 1774.67 15.9485 1775.2 16.081C1775.71 16.2255 1776.12 16.5085 1776.45 16.9301C1776.77 17.3516 1776.93 17.8334 1776.93 18.3754V42.2773Z" fill="black"/>
<path d="M1862.91 31.6903L1848.08 31.6903V26.9569L1862.91 26.9569V31.6903ZM1865.02 42.2773L1848.08 42.2773C1847.43 42.2773 1846.72 42.1628 1845.94 41.934C1845.17 41.7052 1844.46 41.3318 1843.79 40.8139C1843.14 40.2839 1842.6 39.6034 1842.15 38.7724C1841.72 37.9293 1841.5 36.8995 1841.5 35.683V18.7367C1841.5 18.4115 1841.56 18.1044 1841.68 17.8153C1841.8 17.5263 1841.96 17.2733 1842.17 17.0566C1842.39 16.8398 1842.64 16.6711 1842.93 16.5507C1843.22 16.4302 1843.53 16.37 1843.87 16.37L1865.02 16.37V21.0673L1846.2 21.0673V35.683C1846.2 36.2973 1846.36 36.767 1846.69 37.0922C1847.01 37.4174 1847.49 37.58 1848.11 37.58L1865.02 37.58V42.2773Z" fill="black"/>
<path d="M1954.63 31.4374C1954.63 33.0152 1954.35 34.4665 1953.8 35.7914C1953.26 37.1163 1952.5 38.2605 1951.54 39.224C1950.58 40.1755 1949.43 40.9223 1948.11 41.4643C1946.78 42.0063 1945.34 42.2773 1943.79 42.2773H1931.11C1930.77 42.2773 1930.46 42.217 1930.17 42.0966C1929.88 41.9761 1929.62 41.8135 1929.41 41.6088C1929.2 41.392 1929.04 41.1391 1928.92 40.85C1928.8 40.5609 1928.74 40.2478 1928.74 39.9106V18.7367C1928.74 18.4115 1928.8 18.1044 1928.92 17.8153C1929.04 17.5263 1929.2 17.2733 1929.41 17.0566C1929.62 16.8398 1929.88 16.6711 1930.17 16.5507C1930.46 16.4302 1930.77 16.37 1931.11 16.37H1943.79C1945.34 16.37 1946.78 16.641 1948.11 17.183C1949.43 17.725 1950.58 18.4778 1951.54 19.4413C1952.5 20.3928 1953.26 21.537 1953.8 22.8739C1954.35 24.1988 1954.63 25.6441 1954.63 27.2099V31.4374ZM1949.93 27.2099C1949.93 26.2945 1949.78 25.4574 1949.48 24.6986C1949.19 23.9399 1948.78 23.2955 1948.23 22.7655C1947.69 22.2235 1947.04 21.808 1946.28 21.519C1945.54 21.2178 1944.7 21.0673 1943.79 21.0673L1933.44 21.0673V37.58H1943.79C1944.7 37.58 1945.54 37.4355 1946.28 37.1464C1947.04 36.8453 1947.69 36.4298 1948.23 35.8998C1948.78 35.3578 1949.19 34.7135 1949.48 33.9667C1949.78 33.2079 1949.93 32.3648 1949.93 31.4374V27.2099Z" fill="black"/>
<path d="M2023.17 42.2773H2018.47V16.37H2023.17V42.2773Z" fill="black"/>
<path d="M2113.28 42.2773H2108.58V35.9179H2092.07V42.2773H2087.37V29.3236C2087.37 27.4327 2087.7 25.6923 2088.35 24.1024C2089 22.5126 2089.9 21.1456 2091.06 20.0014C2092.22 18.8572 2093.58 17.9659 2095.16 17.3275C2096.74 16.6892 2098.46 16.37 2100.33 16.37L2110.91 16.37C2111.24 16.37 2111.55 16.4302 2111.84 16.5507C2112.12 16.6711 2112.38 16.8398 2112.59 17.0566C2112.81 17.2733 2112.98 17.5263 2113.1 17.8153C2113.22 18.1044 2113.28 18.4115 2113.28 18.7367V42.2773ZM2092.07 31.2206L2108.58 31.2206V21.0673L2100.33 21.0673C2100.18 21.0673 2099.88 21.0914 2099.41 21.1396C2098.95 21.1757 2098.41 21.2781 2097.8 21.4467C2097.2 21.6153 2096.56 21.8743 2095.88 22.2235C2095.21 22.5728 2094.59 23.0546 2094.02 23.6689C2093.46 24.2831 2092.99 25.0539 2092.61 25.9814C2092.25 26.8967 2092.07 28.0108 2092.07 29.3236V31.2206Z" fill="black"/>
<path d="M2270.49 31.6903H2255.65V26.9569H2270.49V31.6903ZM2272.6 42.2773H2255.65C2255 42.2773 2254.29 42.1628 2253.52 41.934C2252.75 41.7052 2252.04 41.3318 2251.37 40.8139C2250.72 40.2839 2250.17 39.6034 2249.73 38.7724C2249.3 37.9293 2249.08 36.8995 2249.08 35.683V18.7367C2249.08 18.4115 2249.14 18.1044 2249.26 17.8153C2249.38 17.5263 2249.54 17.2733 2249.75 17.0566C2249.96 16.8398 2250.22 16.6711 2250.51 16.5507C2250.79 16.4302 2251.11 16.37 2251.45 16.37L2272.6 16.37V21.0673H2253.78V35.683C2253.78 36.2973 2253.94 36.767 2254.26 37.0922C2254.59 37.4174 2255.06 37.58 2255.69 37.58H2272.6V42.2773Z" fill="black"/>
<path d="M2360.15 42.2773H2338.72C2338.38 42.2773 2338.07 42.217 2337.78 42.0966C2337.49 41.9761 2337.24 41.8135 2337.02 41.6088C2336.82 41.392 2336.65 41.1391 2336.53 40.85C2336.41 40.5609 2336.35 40.2478 2336.35 39.9106V16.37H2341.05V37.58H2360.15V42.2773Z" fill="black"/>
<path d="M2443.99 31.6903H2429.16V26.9569H2443.99V31.6903ZM2446.1 42.2773H2429.16C2428.51 42.2773 2427.8 42.1628 2427.03 41.934C2426.25 41.7052 2425.54 41.3318 2424.88 40.8139C2424.23 40.2839 2423.68 39.6034 2423.23 38.7724C2422.8 37.9293 2422.58 36.8995 2422.58 35.683V18.7367C2422.58 18.4115 2422.64 18.1044 2422.76 17.8153C2422.88 17.5263 2423.04 17.2733 2423.25 17.0566C2423.47 16.8398 2423.72 16.6711 2424.01 16.5507C2424.3 16.4302 2424.61 16.37 2424.95 16.37L2446.1 16.37V21.0673L2427.28 21.0673V35.683C2427.28 36.2973 2427.44 36.767 2427.77 37.0922C2428.09 37.4174 2428.57 37.58 2429.19 37.58H2446.1V42.2773Z" fill="black"/>
<path d="M2540.01 42.2773H2535.28V26.8485L2526.95 41.5004C2526.74 41.8738 2526.45 42.1568 2526.08 42.3495C2525.72 42.5422 2525.33 42.6386 2524.91 42.6386C2524.5 42.6386 2524.11 42.5422 2523.75 42.3495C2523.4 42.1568 2523.12 41.8738 2522.92 41.5004L2514.55 26.8485V42.2773H2509.86V18.3754C2509.86 17.8334 2510.01 17.3516 2510.33 16.9301C2510.65 16.5085 2511.07 16.2255 2511.59 16.081C2511.84 16.0207 2512.1 16.0027 2512.35 16.0268C2512.6 16.0388 2512.84 16.093 2513.07 16.1894C2513.31 16.2737 2513.53 16.4001 2513.72 16.5688C2513.92 16.7253 2514.08 16.918 2514.21 17.1469L2524.91 35.7372L2535.6 17.1469C2535.88 16.6892 2536.26 16.364 2536.74 16.1713C2537.23 15.9786 2537.74 15.9485 2538.27 16.081C2538.78 16.2255 2539.2 16.5085 2539.52 16.9301C2539.85 17.3516 2540.01 17.8334 2540.01 18.3754V42.2773Z" fill="black"/>
<path d="M2625.98 31.6903H2611.15V26.9569H2625.98V31.6903ZM2628.1 42.2773H2611.15C2610.5 42.2773 2609.79 42.1628 2609.02 41.934C2608.25 41.7052 2607.53 41.3318 2606.87 40.8139C2606.22 40.2839 2605.67 39.6034 2605.23 38.7724C2604.79 37.9293 2604.57 36.8995 2604.57 35.683V18.7367C2604.57 18.4115 2604.63 18.1044 2604.76 17.8153C2604.88 17.5263 2605.04 17.2733 2605.24 17.0566C2605.46 16.8398 2605.71 16.6711 2606 16.5507C2606.29 16.4302 2606.6 16.37 2606.94 16.37L2628.1 16.37V21.0673H2609.27V35.683C2609.27 36.2973 2609.43 36.767 2609.76 37.0922C2610.08 37.4174 2610.56 37.58 2611.19 37.58H2628.1V42.2773Z" fill="black"/>
<path d="M2717.74 40.2719C2717.74 40.6091 2717.67 40.9223 2717.54 41.2113C2717.42 41.5004 2717.25 41.7533 2717.03 41.9701C2716.83 42.1749 2716.58 42.3375 2716.29 42.4579C2716 42.5784 2715.7 42.6386 2715.37 42.6386C2715.08 42.6386 2714.79 42.5844 2714.49 42.476C2714.2 42.3676 2713.94 42.1929 2713.71 41.9521L2696.55 24.0302V42.2773H2691.85V18.3754C2691.85 17.8936 2691.98 17.46 2692.25 17.0746C2692.52 16.6772 2692.87 16.3821 2693.3 16.1894C2693.74 16.0087 2694.2 15.9665 2694.67 16.0629C2695.14 16.1472 2695.54 16.364 2695.88 16.7133L2713.04 34.6171V16.37H2717.74V40.2719Z" fill="black"/>
<path d="M2805.83 21.0673H2795.48V42.2773H2790.78V21.0673L2780.41 21.0673V16.37L2805.83 16.37V21.0673Z" fill="black"/>
<path d="M2893.39 34.6532C2893.39 35.5806 2893.27 36.4177 2893.03 37.1645C2892.8 37.8992 2892.49 38.5496 2892.11 39.1156C2891.72 39.6817 2891.27 40.1635 2890.75 40.5609C2890.24 40.9584 2889.7 41.2836 2889.15 41.5365C2888.59 41.7895 2888.03 41.9761 2887.45 42.0966C2886.88 42.217 2886.35 42.2773 2885.84 42.2773H2867.72V37.58H2885.84C2886.74 37.58 2887.44 37.315 2887.94 36.7851C2888.44 36.2551 2888.69 35.5445 2888.69 34.6532C2888.69 34.2196 2888.63 33.8222 2888.5 33.4608C2888.36 33.0995 2888.17 32.7864 2887.92 32.5214C2887.68 32.2564 2887.38 32.0517 2887.01 31.9071C2886.66 31.7626 2886.27 31.6903 2885.84 31.6903H2875.04C2874.28 31.6903 2873.46 31.5579 2872.58 31.2929C2871.7 31.0159 2870.88 30.5762 2870.12 29.974C2869.38 29.3718 2868.75 28.5829 2868.24 27.6073C2867.75 26.6317 2867.5 25.4394 2867.5 24.0302C2867.5 22.621 2867.75 21.4346 2868.24 20.4711C2868.75 19.4955 2869.38 18.7066 2870.12 18.1044C2870.88 17.4901 2871.7 17.0505 2872.58 16.7856C2873.46 16.5085 2874.28 16.37 2875.04 16.37H2891.02V21.0673H2875.04C2874.14 21.0673 2873.45 21.3383 2872.94 21.8803C2872.45 22.4223 2872.2 23.1389 2872.2 24.0302C2872.2 24.9335 2872.45 25.6501 2872.94 26.1801C2873.45 26.698 2874.14 26.9569 2875.04 26.9569H2885.84H2885.88C2886.38 26.969 2886.92 27.0413 2887.48 27.1737C2888.05 27.2942 2888.61 27.4869 2889.16 27.7519C2889.73 28.0168 2890.27 28.3541 2890.77 28.7636C2891.28 29.161 2891.72 29.6428 2892.11 30.2089C2892.51 30.775 2892.82 31.4254 2893.05 32.1601C2893.28 32.8948 2893.39 33.7258 2893.39 34.6532Z" fill="black"/>
</g>
<defs>
<clipPath id="clip0">
<rect width="2893" height="58" fill="white"/>
</clipPath>
</defs>
</svg>
